HIERARCHY
ROOT Hips
{
	OFFSET 0.00 0.00 0.00
	CHANNELS 6 Xposition Yposition Zposition Yrotation Xrotation Zrotation
	JOINT LHipJoint
	{
		OFFSET	0.0000	0.0000	0.0000
		CHANNELS 3 Yrotation Xrotation Zrotation
		JOINT LeftUpLeg
		{
			OFFSET	1.0138	-0.0809	-0.0827
			CHANNELS 3 Yrotation Xrotation Zrotation
			JOINT LeftLeg
			{
				OFFSET	0.4110	-3.9095	0.3245
				CHANNELS 3 Yrotation Xrotation Zrotation
				JOINT LeftFoot
				{
					OFFSET	0.3810	-4.0555	-0.1470
					CHANNELS 3 Yrotation Xrotation Zrotation
					JOINT LeftToeBase
					{
						OFFSET	0.1396	-0.4462	1.3079
						CHANNELS 3 Yrotation Xrotation Zrotation
						End Site
						{
							OFFSET 0.0161 -0.0248 0.1809
						}
					}
				}
			}
		}
	}
	JOINT LowerBack
	{
		OFFSET	0.0000	0.7977	-0.3873
		CHANNELS 3 Yrotation Xrotation Zrotation
		JOINT Spine
		{
			OFFSET	0.0000	1.4131	0.1715
			CHANNELS 3 Yrotation Xrotation Zrotation
			JOINT Spine1
			{
				OFFSET	0.0000	1.4392	-0.1032
				CHANNELS 3 Yrotation Xrotation Zrotation
				JOINT LeftShoulder
				{
					OFFSET	0.2274	1.0382	0.4032
					CHANNELS 3 Yrotation Xrotation Zrotation
					JOINT LeftArm
					{
						OFFSET	1.4730	-0.2267	-0.0231
						CHANNELS 3 Yrotation Xrotation Zrotation
						JOINT LeftForeArm
						{
							OFFSET	1.6131	-1.8059	0.0081
							CHANNELS 3 Yrotation Xrotation Zrotation
							JOINT LeftHand
							{
								OFFSET	1.2197	-1.2423	1.6317
								CHANNELS 3 Yrotation Xrotation Zrotation
								JOINT LThumb
								{
									OFFSET	0.0109	-0.0753	0.4387
									CHANNELS 3 Yrotation Xrotation Zrotation
									End Site
									{
										OFFSET -0.2090 -0.0868 0.2097
									}
								}
								JOINT LeftFingerBase
								{
									OFFSET	0.1071	-0.1567	0.2607
									CHANNELS 3 Yrotation Xrotation Zrotation
									JOINT LeftHandFinger1
									{
										OFFSET	0.1706	-0.2492	0.6830
										CHANNELS 3 Yrotation Xrotation Zrotation
										End Site
										{
											OFFSET 0.0335 -0.1507 0.2071
										}
									}
								}
							}
						}
					}
				}
				JOINT Neck
				{
					OFFSET	0.0000	1.7498	0.2381
					CHANNELS 3 Yrotation Xrotation Zrotation
					JOINT Neck1
					{
						OFFSET	0.0000	0.5043	0.1959
						CHANNELS 3 Yrotation Xrotation Zrotation
						JOINT Head
						{
							OFFSET	0.0000	0.5044	0.1959
							CHANNELS 3 Yrotation Xrotation Zrotation
							End Site
							{
								OFFSET 0.0000 1.4798 -0.0693
							}
						}
					}
				}
				JOINT RightShoulder
				{
					OFFSET	-0.2274	1.0382	0.4032
					CHANNELS 3 Yrotation Xrotation Zrotation
					JOINT RightArm
					{
						OFFSET	-1.4730	-0.2267	-0.0231
						CHANNELS 3 Yrotation Xrotation Zrotation
						JOINT RightForeArm
						{
							OFFSET	-1.6131	-1.8059	0.0081
							CHANNELS 3 Yrotation Xrotation Zrotation
							JOINT RightHand
							{
								OFFSET	-1.2197	-1.2423	1.6317
								CHANNELS 3 Yrotation Xrotation Zrotation
								JOINT RThumb
								{
									OFFSET	-0.0109	-0.0753	0.4387
									CHANNELS 3 Yrotation Xrotation Zrotation
									End Site
									{
										OFFSET 0.2090 -0.0868 0.2097
									}
								}
								JOINT RightFingerBase
								{
									OFFSET	-0.1071	-0.1567	0.2607
									CHANNELS 3 Yrotation Xrotation Zrotation
									JOINT RightHandFinger1
									{
										OFFSET	-0.1706	-0.2492	0.6830
										CHANNELS 3 Yrotation Xrotation Zrotation
										End Site
										{
											OFFSET -0.0335 -0.1507 0.2071
										}
									}
								}
							}
						}
					}
				}
			}
		}
	}
	JOINT RHipJoint
	{
		OFFSET	0.0000	0.0000	0.0000
		CHANNELS 3 Yrotation Xrotation Zrotation
		JOINT RightUpLeg
		{
			OFFSET	-1.0138	-0.0809	-0.0827
			CHANNELS 3 Yrotation Xrotation Zrotation
			JOINT RightLeg
			{
				OFFSET	-0.4110	-3.9095	0.3245
				CHANNELS 3 Yrotation Xrotation Zrotation
				JOINT RightFoot
				{
					OFFSET	-0.3810	-4.0555	-0.1470
					CHANNELS 3 Yrotation Xrotation Zrotation
					JOINT RightToeBase
					{
						OFFSET	-0.1396	-0.4462	1.3079
						CHANNELS 3 Yrotation Xrotation Zrotation
						End Site
						{
							OFFSET -0.0161 -0.0248 0.1809
						}
					}
				}
			}
		}
	}
}
MOTION
Frames: 12
Frame Time: 0.0333333
-0.0216 8.4271 0.0658 -66.2067 4.7216 -0.3417 0.0000 -0.0000 0.0000 -0.7506 -31.4357 -2.6384 2.4472 55.9118 -0.4268 -0.3305 -5.7676 1.9739 0.0000 -7.5734 -0.0000 0.0000 -0.0000 0.0000 5.6832 4.7228 0.3821 11.2532 9.5439 0.1596 2.0467 1.2872 1.9086 -19.2561 -4.7626 -27.8613 8.6623 10.7293 -1.2485 1.0186 -6.2632 11.3320 -1.3561 -17.6167 42.4583 -10.7850 15.3254 -13.3925 -13.5337 3.0472 -8.3373 5.6202 4.7288 2.3646 5.6576 4.7053 2.3503 30.1230 -6.9962 -14.6509 6.6559 -2.6891 0.0374 30.9493 -4.6648 15.8210 -20.7234 22.7031 -2.0234 -20.8745 -4.6831 -22.3990 -20.3443 -0.6402 -9.7040 12.4931 20.8656 16.1596 3.5315 -7.5729 0.0753 0.0000 -0.0000 0.0000 -7.4692 -12.7117 10.6618 -0.3580 25.8361 0.7469 2.5009 -17.2953 -11.1197 0.0000 -8.0809 -0.0000 
-0.0254 8.4317 0.0994 -68.1899 5.1935 0.2201 0.0000 -0.0000 0.0000 1.4796 -33.7995 -6.8668 3.6846 42.9491 1.1082 -0.2639 -6.5394 0.9339 -0.0000 -6.9851 -0.0000 0.0000 -0.0000 0.0000 6.4316 4.5916 -0.2568 12.6150 9.3381 -0.9315 3.4294 1.6282 2.0293 -18.7958 -2.3007 -27.4406 10.8139 13.0120 -0.8481 3.8242 -3.1564 10.5083 -1.3561 -17.6167 42.4584 -11.3901 15.8050 -14.0374 -13.5328 3.0464 -8.3366 5.6165 4.7661 2.2992 5.6479 4.7323 2.2956 30.0232 -7.0713 -14.2724 7.0897 -3.3629 -0.2319 31.5375 -5.7125 14.1854 -18.7740 20.9194 -1.3336 -21.3467 -6.5812 -21.1506 -20.3443 -0.6402 -9.7040 11.8276 19.9724 15.4186 3.5176 -7.5884 0.0647 0.0000 -0.0000 0.0000 -7.1033 -7.9442 10.7215 1.3951 23.1077 1.4400 3.6633 -19.3979 -12.8965 -0.0001 -7.6061 0.0000 
-0.0370 8.3708 0.1341 -70.6110 5.7572 0.0241 0.0000 -0.0000 0.0000 2.0796 -34.5408 -8.8408 2.7351 27.0614 0.7916 -0.1008 -5.9183 -0.5039 -0.0000 -6.7919 -0.0000 0.0000 -0.0000 0.0000 7.4026 4.2740 -0.5521 14.5786 8.6665 -0.9869 4.7483 1.9193 2.0651 -17.8595 0.8801 -27.3570 12.1515 14.4037 -0.5570 6.0870 0.5984 10.7252 -1.3561 -17.6167 42.4583 -12.6054 16.5184 -15.2938 -13.5072 3.0237 -8.3150 5.6255 4.7389 2.0050 5.6461 4.7030 2.0251 29.9946 -7.1373 -14.3049 7.6674 -3.9095 -0.4733 32.8393 -5.5581 12.2696 -16.7621 19.0116 -0.6831 -22.4639 -8.3277 -19.7322 -20.3443 -0.6403 -9.7040 11.7344 19.7516 15.2924 3.5111 -7.5957 0.0596 0.0000 -0.0000 0.0000 -7.3899 -3.4638 11.2535 4.3065 21.3862 2.4137 5.2718 -21.8575 -15.4919 -0.0000 -7.2233 -0.0000 
-0.0617 8.2459 0.1590 -74.5509 5.9553 -0.7292 0.0000 -0.0000 0.0000 1.8492 -35.7989 -8.5422 2.0439 13.5605 0.5060 -0.3422 -6.2398 1.1593 -0.0000 -7.1769 -0.0000 0.0000 -0.0000 0.0000 8.8052 4.0142 -0.6816 17.5239 8.0178 -0.4536 5.9328 2.1407 2.0299 -16.1992 4.4070 -27.8032 12.6736 14.9407 -0.4349 8.4436 4.4362 11.2290 -1.3561 -17.6167 42.4583 -13.6738 17.0284 -16.3886 -13.4789 2.9987 -8.2911 5.6640 4.5341 1.7566 5.6852 4.5297 1.7670 30.2066 -6.8809 -14.7194 8.4585 -4.2818 -0.5860 35.2656 -4.6369 9.9726 -14.9655 17.2533 -0.1573 -23.5339 -9.6784 -18.9946 -20.3443 -0.6403 -9.7040 11.3825 19.3235 14.9013 3.5063 -7.6011 0.0559 0.0000 -0.0000 0.0000 -7.9896 0.9995 11.4797 6.6231 20.8265 3.2416 9.9227 -24.3366 -19.0337 -0.0000 -7.4100 0.0000 
-0.1197 8.0391 0.1717 -79.3432 5.9043 -2.0427 0.0000 -0.0000 0.0000 2.5417 -38.5479 -6.8275 3.4745 6.5189 0.6377 -0.1880 -9.6551 -2.4304 0.0000 -7.6076 -0.0000 0.0000 -0.0000 0.0000 10.4305 3.6777 -0.5209 20.7410 7.2671 0.0684 6.7709 2.2558 2.0377 -14.3340 6.9517 -28.5077 13.8825 16.1698 -0.1337 10.4376 6.9713 11.4164 -1.3561 -17.6167 42.4584 -13.9528 17.1106 -16.6686 -13.4308 2.9561 -8.2506 5.7420 4.2474 1.7948 5.7786 4.2701 1.7589 30.7217 -6.3862 -15.0964 9.2701 -4.4523 -0.5091 38.8386 -3.6470 7.4143 -13.6369 15.9218 0.1969 -23.7057 -10.8074 -18.5214 -20.3443 -0.6402 -9.7040 10.5787 18.5583 14.0529 3.5012 -7.6067 0.0521 0.0000 -0.0000 0.0000 -8.7491 5.3969 11.2477 7.8412 21.6716 3.9455 17.2006 -27.2443 -23.5033 0.0000 -8.0200 -0.0000 
-0.1523 7.8512 0.1655 -83.3987 5.7688 -3.3104 0.0000 -0.0000 0.0000 2.6088 -42.8065 -4.9202 6.5438 9.0485 1.3651 0.1619 -13.7370 -5.6260 -0.0000 -7.0402 -0.0000 0.0000 -0.0000 0.0000 11.7790 3.5765 -0.2191 23.2851 7.0843 0.4154 7.1723 2.2671 2.0674 -13.0753 7.5526 -28.8467 16.9309 19.1741 0.7352 11.3564 7.3727 11.1205 -1.3561 -17.6167 42.4583 -13.6283 16.9759 -16.3386 -13.3610 2.8941 -8.1918 5.8557 3.8859 1.7185 5.8886 3.9400 1.6963 31.2722 -6.4116 -15.2503 9.7995 -4.4213 -0.3118 42.7788 -3.3778 5.2298 -12.9677 15.2416 0.3639 -22.4477 -11.9895 -17.6455 -20.3443 -0.6402 -9.7040 10.1016 18.5256 13.6480 3.4999 -7.6083 0.0510 0.0000 -0.0000 0.0000 -9.3914 11.1044 10.4177 7.9094 19.4221 3.8258 24.7472 -28.3517 -27.2266 -0.0000 -8.8631 0.0000 
-0.1532 7.6802 0.1458 -85.1475 5.8448 -3.6327 0.0000 -0.0000 0.0000 2.0722 -46.8291 -5.2268 7.1810 17.8502 2.4941 -1.3645 -9.7960 7.8506 0.0000 -10.1473 0.0000 0.0000 -0.0000 0.0000 12.4064 3.7120 -0.3405 24.3497 7.4232 0.0789 7.1807 2.2338 1.8883 -12.7581 6.9664 -28.2654 20.8471 22.8140 2.0691 11.6367 6.4815 10.8831 -1.3561 -17.6167 42.4583 -13.3530 16.9699 -16.0736 -13.3210 2.8585 -8.1580 5.9311 3.7270 1.5855 5.9503 3.7251 1.6119 31.5959 -7.3992 -15.3822 9.9021 -4.2122 -0.0798 45.8021 -4.4715 4.3097 -13.0164 15.2914 0.3520 -19.9096 -13.2477 -16.1171 -20.3443 -0.6402 -9.7040 10.8046 20.1924 14.5204 3.5104 -7.5965 0.0591 0.0000 -0.0000 0.0000 -10.2348 14.5287 9.1657 8.0935 20.4049 4.2790 28.2939 -27.0392 -28.8756 0.0000 -10.3505 0.0000 
-0.1628 7.6039 0.1360 -84.1670 6.1917 -1.8184 0.0000 -0.0000 0.0000 1.4876 -44.8265 -7.7290 12.1657 16.7153 3.9997 2.5236 12.3709 11.9562 -0.0000 -13.2109 0.0000 0.0000 -0.0000 0.0000 12.1327 3.9221 -1.4236 23.7462 8.0007 -1.8507 6.8176 2.1722 1.4579 -13.0968 6.5828 -26.8198 23.8178 25.3977 3.2319 12.2995 5.7644 11.4396 -1.3561 -17.6167 42.4583 -13.5237 17.1895 -16.2687 -13.3078 2.8468 -8.1469 5.8984 3.7046 1.7137 5.9264 3.6689 1.7340 31.5148 -8.6263 -15.1135 9.6582 -3.8597 0.1742 47.0602 -6.9432 5.2333 -13.6791 15.9645 0.1862 -17.0431 -14.1831 -13.9918 -20.3443 -0.6402 -9.7040 12.5060 22.8309 16.2893 3.5341 -7.5699 0.0773 0.0000 -0.0000 0.0000 -11.8277 18.6497 6.7028 8.3059 18.7776 4.2286 27.1506 -22.1000 -27.6883 0.0000 -15.9973 0.0000 
-0.2013 7.5429 0.1338 -81.9867 6.3814 -0.2195 0.0000 -0.0000 0.0000 0.5752 -47.2531 -9.6724 14.7699 27.6800 7.1170 3.2635 10.2921 10.6016 -0.0000 -8.2362 0.0000 0.0000 -0.0000 0.0000 11.6901 3.8690 -2.2717 22.6358 8.1046 -3.7356 6.0844 2.0454 1.0917 -13.6644 6.4993 -25.1178 25.3976 26.7072 3.8995 13.5148 5.6163 12.7442 -1.3561 -17.6167 42.4583 -14.2658 17.5432 -17.0325 -13.2632 2.8071 -8.1093 5.7986 3.7716 1.6995 5.8310 3.7531 1.7346 30.7237 -9.4778 -13.9823 9.2760 -3.3915 0.4111 46.7453 -9.9108 7.6663 -14.7610 17.0501 -0.1008 -15.1715 -14.0819 -11.4010 -20.3443 -0.6403 -9.7040 13.8541 24.7298 17.5861 3.5542 -7.5475 0.0928 0.0000 -0.0000 0.0000 -14.8773 23.3239 4.3134 9.0911 16.6766 3.7290 25.4321 -14.1492 -28.2670 -0.0000 -29.8164 0.0000 
-0.2120 7.5581 0.1261 -78.7532 6.4897 2.0044 0.0000 -0.0000 0.0000 1.3644 -47.2592 -12.7318 15.5859 34.7744 8.7898 1.7674 3.3543 8.8460 0.0000 -5.3748 0.0000 0.0000 -0.0000 0.0000 11.0177 4.1700 -3.2821 21.0706 8.8936 -5.8460 5.1025 1.8456 0.9563 -14.3354 5.8788 -23.7430 26.1378 27.3051 4.2235 14.3302 5.3722 13.8225 -1.3561 -17.6167 42.4584 -15.5564 17.9698 -18.3415 -13.2034 2.7538 -8.0589 5.6345 3.8120 1.8440 5.6910 3.7598 1.8151 29.7237 -10.0241 -13.0245 8.9939 -2.8283 0.5273 45.7691 -12.1195 10.2097 -16.0766 18.3466 -0.4762 -15.0588 -12.3824 -8.6086 -20.3443 -0.6403 -9.7040 13.8608 25.0595 17.5717 3.5509 -7.5511 0.0903 0.0000 -0.0000 0.0000 -17.4535 18.2953 1.8801 10.1879 29.7658 6.8008 21.8517 -1.2052 -18.7771 5.6202 -34.5131 49.8724 
-0.1849 7.6642 0.1280 -75.2119 6.4665 3.9490 0.0000 -0.0000 0.0000 3.0089 -44.1161 -15.7407 12.5383 36.9983 7.1455 0.8640 -1.0499 8.6005 -0.0000 -5.3754 -0.0000 0.0000 -0.0000 0.0000 10.1695 4.6572 -3.7226 19.3965 9.9632 -6.9665 4.3126 1.6399 0.5858 -15.0326 4.4534 -22.9597 26.3108 27.4434 4.3002 13.5324 4.5370 13.6488 -1.3561 -17.6167 42.4583 -16.8809 18.3342 -19.6845 -13.1990 2.7499 -8.0552 5.5953 4.1051 1.4863 5.6465 4.0071 1.4922 29.2233 -10.8076 -12.6984 8.9167 -2.1972 0.4998 44.8795 -12.8637 11.5274 -17.4783 19.6983 -0.9073 -16.1091 -9.2494 -6.2079 -20.3443 -0.6402 -9.7040 13.0915 24.1338 16.8389 3.5306 -7.5738 0.0747 0.0000 -0.0000 0.0000 -16.9922 8.5589 1.8000 9.2004 47.4152 9.5439 17.9951 10.8701 1.6809 -0.0000 -15.2076 0.0000 
-0.1351 7.8050 0.1355 -72.0711 6.3802 5.1987 0.0000 -0.0000 0.0000 4.4954 -39.7575 -17.2742 8.1389 37.1031 4.3164 -0.1827 -4.2945 8.9117 0.0000 -5.3766 0.0000 0.0000 -0.0000 0.0000 9.1681 4.9521 -3.7927 17.5143 10.4754 -7.0330 3.7059 1.4367 -0.0675 -15.5311 2.7158 -22.8619 25.9203 27.1305 4.1276 10.9925 3.4443 12.0217 -1.3561 -17.6167 42.4583 -17.4067 18.4011 -20.1989 -13.2555 2.8002 -8.1028 5.7287 4.4001 0.9842 5.7660 4.2975 1.0498 29.3770 -10.7906 -12.6010 8.9187 -1.5335 0.4400 44.1682 -12.3599 11.5550 -18.7801 20.9250 -1.3357 -16.7143 -5.5533 -4.9721 -20.3443 -0.6403 -9.7040 12.5776 22.7815 16.3435 3.5186 -7.5873 0.0654 0.0000 -0.0000 0.0000 -15.5531 -0.8977 2.7070 10.8759 60.7392 13.2693 11.3703 7.5939 4.5028 -0.0000 -11.9413 -0.0000 
